<svg xmlns="http://www.w3.org/2000/svg" viewBox="0 0 563 471"><defs><style>.cls-1{fill:#aaa9a9;}</style></defs><title>Ativo 1</title><g id="Camada_2" data-name="Camada 2"><g id="Camada_1-2" data-name="Camada 1"><path class="cls-1" d="M314.32,214.3a66.4,66.4,0,1,0-66.4-66.39A66.46,66.46,0,0,0,314.32,214.3Zm0-118a51.64,51.64,0,1,1-51.64,51.64A51.7,51.7,0,0,1,314.32,96.27Z"/><path class="cls-1" d="M305.54,186.28h1.8a44.6,44.6,0,0,0,44.54-44.56v-1.79c-.18-1.92-2.85-3.5-5.94-3.5h-2.39c-3.09,0-5.41,1.57-5.16,3.49v1.8a31.1,31.1,0,0,1-31.05,31.06h-1.81c-1.92-.25-3.49,2.07-3.49,5.16v2.39C302,183.42,303.62,186.1,305.54,186.28Z"/><circle class="cls-1" cx="313.29" cy="146.08" r="11.25"/><path class="cls-1" d="M551.79,0A11.24,11.24,0,0,0,541,11.36V101H494V54.36A11.24,11.24,0,0,0,483.21,43,11,11,0,0,0,472,54v69h69V224.67c-32.19,2.19-59.29,5.76-83,11V182.34A10.24,10.24,0,0,0,448.67,172,10,10,0,0,0,438,182v58.66q-2.78.78-5.49,1.6c-28.11,8.53-51.62,20.17-73.5,36.43-49.26-23.49-100.14-46.94-153.85-68.87-23.38-9.55-49.56-8.53-76.16-4.42V165h57V106.36A11.24,11.24,0,0,0,175.21,95,11,11,0,0,0,164,106v37H129V23.36A11.24,11.24,0,0,0,118.21,12,11,11,0,0,0,107,23V95H72V58.36A11.24,11.24,0,0,0,61.21,47,11,11,0,0,0,50,58v59h57v92.33c-4.13.81-8.26,1.65-12.38,2.48-28,5.69-57,11.57-82.2,8.28L0,218.48V450.94A20.06,20.06,0,0,0,20.06,471H542.94A20.06,20.06,0,0,0,563,450.94V11A11,11,0,0,0,551.79,0ZM99,233.37c27.88-5.66,54.57-11.07,77.81-8.22l-2.39,6.39c-10,27-26.78,72.13-54.24,93.83A227.41,227.41,0,0,1,22,370.12V242.93C47.16,243.89,73.46,238.56,99,233.37ZM541,449H22V392.48a249.52,249.52,0,0,0,111.82-49.85c32.29-25.52,50.41-74.29,61.23-103.43,1.12-3,2.18-5.88,3.16-8.45,74.16,30.34,143.19,63.73,210,96,45.56,22,88.58,42.84,130.4,61.29l2.44,1.08ZM417.74,307q-17.87-8.64-36-17.36C420,264.4,467.12,251.86,541,246.73V365.08C501.54,347.49,460.77,327.77,417.74,307Z"/></g></g></svg>