<svg id="Camada_1" data-name="Camada 1" xmlns="http://www.w3.org/2000/svg" viewBox="0 0 425.2 425.2"><path d="M395.43,425.17H125.32a13.81,13.81,0,0,1-13.81-13.81V344.28a13.81,13.81,0,0,1,27.62,0v53.27H381.62V37.85H139.13V93.09a13.81,13.81,0,0,1-27.62,0V24a13.81,13.81,0,0,1,13.81-13.81H395.43A13.81,13.81,0,0,1,409.24,24V411.36A13.81,13.81,0,0,1,395.43,425.17Z"/><path d="M274.18,204.39h-219l27.08-46.81a13.81,13.81,0,0,0-23.9-13.83L17.82,213.8a13.79,13.79,0,0,0,1.52,16l55.56,64a13.81,13.81,0,0,0,20.85-18.1L57.85,232H274.18a13.81,13.81,0,0,0,0-27.62Z"/></svg>