<svg id="Camada_1" data-name="Camada 1" xmlns="http://www.w3.org/2000/svg" viewBox="0 0 425.2 425.2"><defs><style>.cls-1{fill:#058bc6;}</style></defs><path class="cls-1" d="M399.64,16.48H66A13.05,13.05,0,0,0,52.93,29.54V55.4H29.63a13.05,13.05,0,1,0,0,26.1h23.3v44.07H28.27a13.06,13.06,0,0,0,0,26.11H52.93v44.07h-26a13.06,13.06,0,0,0,0,26.11h26v44.07H31A13.05,13.05,0,1,0,31,292h22V336.1H25.56a13.06,13.06,0,1,0,0,26.11H52.93v33.45a13,13,0,0,0,13.06,13H399.64a13,13,0,0,0,13.05-13V29.54A13,13,0,0,0,399.64,16.48ZM386.58,382.61H79v-20.4h23.07a13.06,13.06,0,0,0,0-26.11H79V292h28.49a13.05,13.05,0,1,0,0-26.1H79V221.86h24.42a13.06,13.06,0,0,0,0-26.11H79V151.68h25.77a13.06,13.06,0,1,0,0-26.11H79V81.5h27.14a13.05,13.05,0,0,0,0-26.1H79V42.59H386.58Z"/><path class="cls-1" d="M232.81,237.72a65,65,0,1,1,65-65A65.12,65.12,0,0,1,232.81,237.72Zm0-104a38.94,38.94,0,1,0,38.94,38.94A39,39,0,0,0,232.81,133.74Z"/><path class="cls-1" d="M284.8,292h-104a13.05,13.05,0,1,1,0-26.1h104a13,13,0,1,1,0,26.1Z"/></svg>