<svg id="Camada_1" data-name="Camada 1" xmlns="http://www.w3.org/2000/svg" viewBox="0 0 425.2 425.2"><defs><style>.cls-1{fill:#058bc6;}</style></defs><path class="cls-1" d="M295.07,167.54h-1.95v-59C293.08,60.75,271.54,5,210.92,5c-62.24,0-78.85,65.06-78.85,103.5v59h-1.94a65.47,65.47,0,0,0-65.39,65.39V354.81a65.47,65.47,0,0,0,65.39,65.39H295.07a65.47,65.47,0,0,0,65.39-65.39V232.93A65.47,65.47,0,0,0,295.07,167.54Zm-144.31-59c0-8.68,1.68-84.82,60.16-84.82,61.67,0,63.49,76.14,63.5,84.83l0,59H150.76Zm191,246.31a46.76,46.76,0,0,1-46.7,46.71H130.13a46.77,46.77,0,0,1-46.71-46.71V232.93a46.76,46.76,0,0,1,46.71-46.7H295.07a46.75,46.75,0,0,1,46.7,46.7Z"/><path class="cls-1" d="M259.14,274.43A46.54,46.54,0,1,0,203.26,320v39.2a9.34,9.34,0,0,0,18.68,0V320A46.61,46.61,0,0,0,259.14,274.43ZM212.6,302.3a27.87,27.87,0,1,1,27.86-27.87A27.9,27.9,0,0,1,212.6,302.3Z"/></svg>