<svg id="Camada_1" data-name="Camada 1" xmlns="http://www.w3.org/2000/svg" viewBox="0 0 425.2 425.2"><defs><style>.cls-1{fill:#fff;}</style></defs><path class="cls-1" d="M411.31,83.74a15.39,15.39,0,0,0-20.63,6.36l-18.17,34.36C331,43.2,238.37,1.4,150,24.93A194.47,194.47,0,0,0,12.34,262.54C35.44,349.34,114.16,406.78,200,406.78A194.27,194.27,0,0,0,250,400.22a192.19,192.19,0,0,0,102.37-67.54l4-5.33c5.78-7.6,4.41-13.94,3.08-17a15.06,15.06,0,0,0-12.17-8.95c-5.63-.59-10.86,1.9-14.52,6.9-2.35,3.23-2.61,3.56-3.53,4.72l-.52.66a162.35,162.35,0,0,1-86.64,57c-87.13,23.19-176.9-28.8-200.11-116A163.38,163.38,0,0,1,345.3,138.16l-39.2-9.62a14.85,14.85,0,0,0-11.54,1.78A15.26,15.26,0,0,0,298.11,158l69.16,17a15.19,15.19,0,0,0,17.13-7.68l33.28-62.91A15.32,15.32,0,0,0,411.31,83.74Z"/></svg>