<svg id="Camada_1" data-name="Camada 1" xmlns="http://www.w3.org/2000/svg" viewBox="0 0 425.2 425.2"><path d="M319.25,11.24A69.77,69.77,0,0,0,249.69,80.8a68.53,68.53,0,0,0,2.9,19.41L149,165.42a69.57,69.57,0,1,0,.14,108.82l103.46,65.21a68.76,68.76,0,0,0-2.9,19.56,69.72,69.72,0,1,0,15.94-44.2l-98.39-62A69.12,69.12,0,0,0,167.1,187c32.58-20.75,65.7-41.4,98.53-62A69.52,69.52,0,1,0,319.25,11.24Zm0,27.83A41.73,41.73,0,1,1,277.51,80.8,41.52,41.52,0,0,1,319.25,39.07ZM106,178.17A41.74,41.74,0,1,1,64.22,219.9,41.52,41.52,0,0,1,106,178.17Zm213.3,139.11A41.73,41.73,0,1,1,277.51,359a41.52,41.52,0,0,1,41.74-41.73Z"/></svg>