<svg xmlns="http://www.w3.org/2000/svg" viewBox="0 0 863 862"><defs><style>.cls-1{fill:#fff;}</style></defs><title>Prancheta 3</title><g id="Camada_3" data-name="Camada 3"><path class="cls-1" d="M590.69,153.62V142.23C589.55,130,572.53,120,552.83,120H537.65c-19.71,0-34.5,10-32.88,22.18v11.49C504.77,262.69,416,351.41,307,351.41H295.49c-12.18-1.59-22.18,13.17-22.18,32.88v15.19c0,19.7,10.05,36.75,22.25,37.87H307C463.43,437.35,590.69,310.07,590.69,153.62Z"/><circle class="cls-1" cx="344.93" cy="181.38" r="71.62" transform="translate(-43.48 149.59) rotate(-23.06)"/><path class="cls-1" d="M204.09,620q0-17-11.45-17a16.53,16.53,0,0,0-8.27,2.42,53.26,53.26,0,0,0-8.52,6.23v85a93.68,93.68,0,0,1-9.41,1.14q-5.08.39-10.43.39t-10.43-.39a93.68,93.68,0,0,1-9.41-1.14V569.61l1.78-1.78h14.76q16.28,0,21.36,16,18.06-16.53,35.11-16.53,20.59,0,29.76,17.55,19.83-17.55,37.64-17.55t26.58,11.06q8.77,11.07,8.78,29.38v57q0,16.54,6.36,25.19a33.56,33.56,0,0,1-23.15,8.64q-13.23,0-18.06-6.1t-4.83-18.57V619.72q0-16.79-12-16.79-7.38,0-16.28,8.9v84.71a93.68,93.68,0,0,1-9.41,1.14q-5.09.39-10.43.39t-10.55-.39a93.31,93.31,0,0,1-9.54-1.14Z"/><path class="cls-1" d="M445.24,645.92H379.09q.51,11.33,5.83,17.62t17.48,6.29a67.57,67.57,0,0,0,14.07-1.72,129.07,129.07,0,0,0,18.37-5.66q8.36,8.65,10.39,23.41-20.36,14.49-49.86,14.49-16,0-26.83-5.08A45.23,45.23,0,0,1,351,681a56.85,56.85,0,0,1-9.54-21.62,123.91,123.91,0,0,1-2.8-27.22,96,96,0,0,1,3.43-26.32,60.26,60.26,0,0,1,10.43-21,48.62,48.62,0,0,1,17.81-14q10.8-5.08,25.31-5.09a56.9,56.9,0,0,1,22,4.07,47.65,47.65,0,0,1,27.22,28.24,61.76,61.76,0,0,1,3.69,21.62Q448.54,635.25,445.24,645.92Zm-66.4-27.47h33.32v-2.8q0-9.4-4.16-15.52T395.5,594q-8.08,0-12,5.72T378.84,618.45Z"/><path class="cls-1" d="M477.28,690.18V511.1l1.78-1.78h15q11.69,0,16.78,5.35t5.09,18.56v42.48a52.5,52.5,0,0,1,29.41-8.64q22.3,0,33.58,18.06t11.29,48.58a73.61,73.61,0,0,1-4.57,26.45A62.1,62.1,0,0,1,573,680.77a54.74,54.74,0,0,1-19.8,13.35,67.86,67.86,0,0,1-25.63,4.71Q498.6,698.83,477.28,690.18Zm56.21-91.32q-9.91,0-17.55,8.4v62.06a47.79,47.79,0,0,0,5.47.76c2,.18,4,.26,6.23.26q22.14,0,22.13-38.41Q549.77,599.11,533.49,598.86Z"/><path class="cls-1" d="M727.83,573.68,696.54,693.23q-7.38,27.48-19.59,42.23-14,16.78-43,16.79a96.78,96.78,0,0,1-30.78-5.09,41.89,41.89,0,0,1,1.52-15.39q2.29-8.52,6.36-13.1a72.17,72.17,0,0,0,22.9,3.82q18.81,0,24.92-20.61l1-3.56q-22.12,0-26.45-16L604,572.66q11.7-5.34,21.88-5.34t14.88,3.82q4.69,3.81,7,13.22l11.7,48.84q1.79,6.87,5.85,33.58a1.85,1.85,0,0,0,2,1.78l22.13-98.7q6.11-1.77,16.53-1.78a66.45,66.45,0,0,1,20.35,2.8Z"/></g></svg>