<svg xmlns="http://www.w3.org/2000/svg" viewBox="0 0 921 474"><defs><style>.cls-1{fill:#058bc6;}</style></defs><title>Prancheta 4</title><g id="Camada_4" data-name="Camada 4"><path class="cls-1" d="M257.36,155.36v-5.5c-.55-5.92-8.77-10.77-18.29-10.77h-7.34c-9.52,0-16.66,4.83-15.88,10.72v5.55a95.68,95.68,0,0,1-95.56,95.57h-5.56c-5.89-.77-10.72,6.36-10.72,15.88v7.34c0,9.52,4.86,17.76,10.75,18.3h5.53C195.87,292.45,257.36,231,257.36,155.36Z"/><circle class="cls-1" cx="146.51" cy="168.77" r="34.61"/><path class="cls-1" d="M375.29,228.88q0-14.3-9.61-14.31a13.87,13.87,0,0,0-6.94,2,44.59,44.59,0,0,0-7.15,5.24v71.32a78.62,78.62,0,0,1-7.91,1c-2.85.22-5.76.32-8.75.32s-5.91-.1-8.76-.32a78.05,78.05,0,0,1-7.9-1V186.6l1.5-1.5h12.38q13.67,0,17.94,13.46,15.17-13.89,29.47-13.88,17.29,0,25,14.73,16.65-14.73,31.6-14.73T458.47,194q7.36,9.28,7.37,24.66v47.84q0,13.88,5.34,21.14a28.16,28.16,0,0,1-19.44,7.26q-11.1,0-15.16-5.12t-4.06-15.59V228.67q0-14.1-10-14.1-6.19,0-13.67,7.48v71.11a78.41,78.41,0,0,1-7.9,1c-2.85.22-5.77.32-8.76.32s-5.94-.1-8.86-.32a78,78,0,0,1-8-1Z"/><path class="cls-1" d="M577.75,250.67H522.22q.42,9.51,4.89,14.79t14.68,5.28a56.54,56.54,0,0,0,11.81-1.45A109.9,109.9,0,0,0,569,264.55q7,7.26,8.72,19.64-17.09,12.18-41.85,12.18-13.46,0-22.54-4.27a38.1,38.1,0,0,1-14.73-12,48.06,48.06,0,0,1-8-18.16,104,104,0,0,1-2.35-22.85,80.67,80.67,0,0,1,2.88-22.1,50.67,50.67,0,0,1,8.76-17.62,40.74,40.74,0,0,1,15-11.74,49.38,49.38,0,0,1,21.25-4.28,47.87,47.87,0,0,1,18.47,3.42,39.95,39.95,0,0,1,22.85,23.71,51.77,51.77,0,0,1,3.1,18.15Q580.52,241.69,577.75,250.67ZM522,227.6h28v-2.35q0-7.89-3.5-13T536,207.1q-6.78,0-10.07,4.8T522,227.6Z"/><path class="cls-1" d="M604.65,287.82V137.48l1.49-1.49h12.6q9.82,0,14.1,4.48t4.27,15.59v35.66a44.13,44.13,0,0,1,24.69-7.26q18.72,0,28.2,15.17t9.47,40.78a61.67,61.67,0,0,1-3.84,22.21A52.17,52.17,0,0,1,685,279.92a46.12,46.12,0,0,1-16.62,11.21,56.92,56.92,0,0,1-21.52,3.95Q622.54,295.08,604.65,287.82Zm47.19-76.66q-8.33,0-14.73,7v52.11a40,40,0,0,0,4.59.64c1.64.15,3.38.22,5.23.22q18.59,0,18.58-32.25Q665.51,211.37,651.84,211.16Z"/><path class="cls-1" d="M815,190,788.73,290.39q-6.19,23.06-16.44,35.45-11.74,14.09-36.09,14.09a81.14,81.14,0,0,1-25.84-4.27,35.06,35.06,0,0,1,1.28-12.92q1.92-7.15,5.34-11A60.3,60.3,0,0,0,736.2,315q15.79,0,20.93-17.3l.85-3q-18.59,0-22.21-13.46l-24.77-92a44.39,44.39,0,0,1,18.36-4.48q8.55,0,12.5,3.2t5.87,11.1l9.82,41q1.5,5.76,4.91,28.19a1.56,1.56,0,0,0,1.71,1.49l18.58-82.86a51.72,51.72,0,0,1,13.88-1.49,55.58,55.58,0,0,1,17.09,2.35Z"/></g></svg>