<svg id="Camada_1" data-name="Camada 1" xmlns="http://www.w3.org/2000/svg" viewBox="0 0 514.99 149.04"><defs><style>.cls-1{fill:#989898;}</style></defs><title>logo conta cinza</title><path class="cls-1" d="M274.51,238.54v-4c-.4-4.29-6.36-7.79-13.25-7.79h-5.32c-6.89,0-12.07,3.49-11.5,7.76v4a69.3,69.3,0,0,1-69.22,69.22h-4c-4.26-.56-7.76,4.61-7.76,11.51v5.31c0,6.9,3.52,12.87,7.79,13.26h4A99.41,99.41,0,0,0,274.51,238.54Z" transform="translate(-163.43 -223.18)"/><circle class="cls-1" cx="30.78" cy="25.07" r="25.07"/><path class="cls-1" d="M359.93,291.79q0-10.37-7-10.36a10,10,0,0,0-5,1.47,31.92,31.92,0,0,0-5.18,3.79v51.66q-2.64.47-5.73.7t-6.34.23q-3.26,0-6.34-.23c-2.07-.16-4-.39-5.73-.7V261.16l1.09-1.08h9q9.9,0,13,9.75,11-10.06,21.35-10.06,12.53,0,18.1,10.67,12.06-10.67,22.89-10.67t16.16,6.73q5.34,6.74,5.34,17.87V319q0,10.05,3.87,15.31a20.38,20.38,0,0,1-14.08,5.26q-8,0-11-3.71t-2.94-11.29V291.64q0-10.22-7.27-10.21-4.49,0-9.9,5.41v51.51q-2.62.47-5.72.7t-6.34.23q-3.25,0-6.42-.23t-5.8-.7Z" transform="translate(-163.43 -223.18)"/><path class="cls-1" d="M506.57,307.57H466.35c.2,4.59,1.39,8.16,3.54,10.71s5.7,3.83,10.63,3.83a41.14,41.14,0,0,0,8.56-1.05,78,78,0,0,0,11.17-3.44q5.08,5.26,6.32,14.23-12.39,8.82-30.32,8.82-9.75,0-16.32-3.09a27.48,27.48,0,0,1-10.67-8.66,34.77,34.77,0,0,1-5.81-13.15,75.81,75.81,0,0,1-1.7-16.55,58.45,58.45,0,0,1,2.09-16,36.77,36.77,0,0,1,6.34-12.77,29.62,29.62,0,0,1,10.83-8.5,35.82,35.82,0,0,1,15.39-3.1,34.57,34.57,0,0,1,13.38,2.48,28.9,28.9,0,0,1,16.55,17.17,37.32,37.32,0,0,1,2.25,13.15A54.49,54.49,0,0,1,506.57,307.57Zm-40.38-16.71h20.27v-1.7a16.36,16.36,0,0,0-2.54-9.43,8.58,8.58,0,0,0-7.59-3.72q-4.92,0-7.3,3.48T466.19,290.86Z" transform="translate(-163.43 -223.18)"/><path class="cls-1" d="M526.06,334.48V225.59l1.08-1.09h9.13q7.11,0,10.2,3.25t3.1,11.29v25.84a31.84,31.84,0,0,1,17.88-5.26q13.56,0,20.42,11t6.87,29.54A44.76,44.76,0,0,1,592,316.23a37.68,37.68,0,0,1-7.72,12.53,33.16,33.16,0,0,1-12,8.12,41.26,41.26,0,0,1-15.58,2.86Q539,339.74,526.06,334.48ZM560.24,279q-6,0-10.67,5.11V321.8a28.9,28.9,0,0,0,3.32.46c1.19.11,2.45.16,3.79.16q13.47,0,13.46-23.36Q570.14,279.11,560.24,279Z" transform="translate(-163.43 -223.18)"/><path class="cls-1" d="M678.42,263.64l-19,72.7q-4.49,16.71-11.91,25.68-8.51,10.2-26.14,10.21a58.68,58.68,0,0,1-18.72-3.1,25.33,25.33,0,0,1,.93-9.35,19.51,19.51,0,0,1,3.87-8,43.7,43.7,0,0,0,13.92,2.32q11.45,0,15.16-12.53l.62-2.17q-13.46,0-16.09-9.74L603.09,263a32.08,32.08,0,0,1,13.3-3.25c4.12,0,7.14.78,9.05,2.32s3.32,4.23,4.25,8.05l7.12,29.7q1.08,4.17,3.56,20.41a1.12,1.12,0,0,0,1.23,1.09l13.46-60a37.4,37.4,0,0,1,10.06-1.08,40.15,40.15,0,0,1,12.37,1.7Z" transform="translate(-163.43 -223.18)"/></svg>