<svg id="Camada_1" data-name="Camada 1" xmlns="http://www.w3.org/2000/svg" viewBox="0 0 807 314"><defs><style>.cls-1{fill:#058bc6;}</style></defs><path class="cls-1" d="M179.35,97.18v-4C179,88.91,173,85.4,166.1,85.4h-5.32c-6.89,0-12.07,3.49-11.5,7.76v4A69.3,69.3,0,0,1,80.07,166.4H76c-4.26-.55-7.76,4.61-7.76,11.51v5.31c0,6.9,3.52,12.87,7.79,13.26h4A99.41,99.41,0,0,0,179.35,97.18Z"/><circle class="cls-1" cx="99.06" cy="106.89" r="25.07"/><path class="cls-1" d="M265.62,151q0-10.47-7-10.47A10.12,10.12,0,0,0,253.5,142a32.62,32.62,0,0,0-5.24,3.83v52.22a57.58,57.58,0,0,1-5.78.7c-2.09.16-4.22.24-6.41.24s-4.33-.08-6.41-.24a57.43,57.43,0,0,1-5.79-.7V120L225,119H234q10,0,13.14,9.85,11.1-10.16,21.57-10.16,12.67,0,18.3,10.79,12.19-10.8,23.13-10.79t16.34,6.8q5.4,6.8,5.4,18.06v35q0,10.15,3.9,15.48a20.61,20.61,0,0,1-14.22,5.31q-8.13,0-11.1-3.75t-3-11.41V150.84q0-10.31-7.35-10.31-4.55,0-10,5.47v52.06a57.58,57.58,0,0,1-5.78.7c-2.09.16-4.22.24-6.41.24s-4.36-.08-6.49-.24a57.19,57.19,0,0,1-5.86-.7Z"/><path class="cls-1" d="M415.71,167H375.06q.3,7,3.58,10.83t10.74,3.86a41.92,41.92,0,0,0,8.65-1,81.47,81.47,0,0,0,11.29-3.48q5.15,5.31,6.39,14.38-12.51,8.92-30.65,8.92-9.84,0-16.49-3.13a27.76,27.76,0,0,1-10.79-8.76,35,35,0,0,1-5.86-13.29,76.07,76.07,0,0,1-1.72-16.72,59,59,0,0,1,2.11-16.19,37,37,0,0,1,6.41-12.89,29.69,29.69,0,0,1,10.94-8.6,36.13,36.13,0,0,1,15.56-3.13,34.88,34.88,0,0,1,13.52,2.5,29.25,29.25,0,0,1,16.73,17.36,37.82,37.82,0,0,1,2.27,13.28A55.3,55.3,0,0,1,415.71,167ZM374.9,150.06h20.48v-1.72a16.52,16.52,0,0,0-2.56-9.53,8.67,8.67,0,0,0-7.68-3.76c-3.31,0-5.77,1.18-7.37,3.52S375.21,144.75,374.9,150.06Z"/><path class="cls-1" d="M498.11,167H457.45q.32,7,3.58,10.83t10.75,3.86a41.91,41.91,0,0,0,8.64-1,81.06,81.06,0,0,0,11.29-3.48q5.15,5.31,6.39,14.38-12.51,8.92-30.64,8.92-9.85,0-16.5-3.13a27.76,27.76,0,0,1-10.79-8.76,35.13,35.13,0,0,1-5.86-13.29,76.07,76.07,0,0,1-1.72-16.72,59,59,0,0,1,2.11-16.19,37,37,0,0,1,6.41-12.89,29.72,29.72,0,0,1,10.95-8.6,36.06,36.06,0,0,1,15.55-3.13,34.93,34.93,0,0,1,13.53,2.5,29.25,29.25,0,0,1,16.73,17.36,38.05,38.05,0,0,1,2.26,13.28A55.33,55.33,0,0,1,498.11,167Zm-40.82-16.89h20.49v-1.72a16.53,16.53,0,0,0-2.57-9.53,8.65,8.65,0,0,0-7.68-3.76c-3.31,0-5.76,1.18-7.37,3.52S457.6,144.75,457.29,150.06Z"/><path class="cls-1" d="M565.33,119.89a41.26,41.26,0,0,1,.94,8.68,39.16,39.16,0,0,1-.94,8.52l-18.61-.32v36q0,7.35,6.88,7.35h8.76a31.24,31.24,0,0,1,2,10.41,25.67,25.67,0,0,1-.63,6.78,158.44,158.44,0,0,1-21.26,1.57q-19.69,0-19.7-21.79V136.93l-12.19.16a31,31,0,0,1-1.1-8.45,34.45,34.45,0,0,1,1.1-8.75l12.19.31v-9.07q0-8,3.05-11.33t10.24-3.36h9.54l1.09,1.09V120.2Z"/><path class="cls-1" d="M583,194.15V84.09l1.1-1.1h9.22q7.2,0,10.32,3.28t3.13,11.42V123.8a32.17,32.17,0,0,1,18.07-5.32q13.71,0,20.65,11.1t6.93,29.86a45.23,45.23,0,0,1-2.81,16.26,38.07,38.07,0,0,1-7.8,12.67,33.84,33.84,0,0,1-12.16,8.21,42,42,0,0,1-15.76,2.89Q596.09,199.47,583,194.15ZM617.55,138q-6.1,0-10.79,5.16v38.15a29.26,29.26,0,0,0,3.36.47c1.2.11,2.47.16,3.83.16q13.6,0,13.6-23.61Q627.55,138.18,617.55,138Z"/><path class="cls-1" d="M738.87,122.55,719.64,196q-4.54,16.88-12,25.95Q699,232.3,681.18,232.3a59.32,59.32,0,0,1-18.92-3.13,25.74,25.74,0,0,1,.94-9.46,19.59,19.59,0,0,1,3.91-8.05A44.08,44.08,0,0,0,681.18,214q11.57,0,15.32-12.67l.62-2.19q-13.59,0-16.26-9.84l-18.13-67.39a32.47,32.47,0,0,1,13.44-3.28q6.26,0,9.15,2.34t4.3,8.13l7.19,30q1.1,4.23,3.6,20.64a1.13,1.13,0,0,0,1.25,1.09l13.6-60.66a37.65,37.65,0,0,1,10.16-1.09,40.62,40.62,0,0,1,12.51,1.72Z"/></svg>