<svg id="Camada_1" data-name="Camada 1" xmlns="http://www.w3.org/2000/svg" viewBox="0 0 577 446"><defs><style>.cls-1{fill:#058bc6;}</style></defs><path class="cls-1" d="M397.93,77.65v-6c-.6-6.48-9.6-11.78-20-11.78h-8c-10.42,0-18.24,5.28-17.38,11.73v6.08A104.72,104.72,0,0,1,247.91,182.25h-6.09c-6.44-.84-11.73,7-11.73,17.39v8c0,10.42,5.31,19.44,11.77,20h6C330.63,227.7,397.93,160.39,397.93,77.65Z"/><circle class="cls-1" cx="267.97" cy="92.33" r="37.88"/><path class="cls-1" d="M105.27,320.59c0-5.91-2-8.88-6-8.88A8.55,8.55,0,0,0,95,313a27.16,27.16,0,0,0-4.44,3.25v44.26c-1.51.26-3.14.46-4.91.6s-3.57.19-5.43.19-3.67-.06-5.43-.19-3.4-.34-4.91-.6V294.36l.93-.93H78.5q8.48,0,11.13,8.35,9.41-8.62,18.29-8.62,10.72,0,15.5,9.15,10.33-9.15,19.61-9.15t13.85,5.77q4.58,5.76,4.57,15.3v29.69q0,8.61,3.31,13.11a17.41,17.41,0,0,1-12,4.51q-6.9,0-9.41-3.18t-2.52-9.67V320.46q0-8.74-6.23-8.75-3.84,0-8.48,4.64v44.13c-1.5.26-3.14.46-4.9.6s-3.58.19-5.44.19-3.69-.06-5.49-.19-3.47-.34-5-.6Z"/><path class="cls-1" d="M232.48,334.11H198q.25,5.89,3,9.18t9.11,3.28a35.28,35.28,0,0,0,7.33-.9,68.13,68.13,0,0,0,9.57-2.95q4.35,4.51,5.41,12.19-10.6,7.56-26,7.56a32.83,32.83,0,0,1-14-2.65,23.62,23.62,0,0,1-9.15-7.42,29.74,29.74,0,0,1-5-11.27A64.77,64.77,0,0,1,177,327a50.14,50.14,0,0,1,1.78-13.71,31.41,31.41,0,0,1,5.44-10.93,25.25,25.25,0,0,1,9.27-7.29,30.65,30.65,0,0,1,13.19-2.65,29.66,29.66,0,0,1,11.46,2.12,24.79,24.79,0,0,1,14.18,14.71,32.07,32.07,0,0,1,1.92,11.26A46.64,46.64,0,0,1,232.48,334.11ZM197.89,319.8h17.36v-1.46a14,14,0,0,0-2.17-8.08,7.36,7.36,0,0,0-6.51-3.18,7,7,0,0,0-6.24,3Q198.29,313,197.89,319.8Z"/><path class="cls-1" d="M302.32,334.11H267.86c.17,3.93,1.19,7,3,9.18s4.89,3.28,9.11,3.28a35.2,35.2,0,0,0,7.33-.9,68.13,68.13,0,0,0,9.57-2.95q4.35,4.51,5.41,12.19-10.6,7.56-26,7.56a32.83,32.83,0,0,1-14-2.65,23.59,23.59,0,0,1-9.14-7.42,29.59,29.59,0,0,1-5-11.27A64.14,64.14,0,0,1,246.79,327a50.14,50.14,0,0,1,1.79-13.71A31.23,31.23,0,0,1,254,302.31a25.2,25.2,0,0,1,9.28-7.29,30.61,30.61,0,0,1,13.18-2.65,29.66,29.66,0,0,1,11.46,2.12,24.79,24.79,0,0,1,14.18,14.71A32.07,32.07,0,0,1,304,320.46,47,47,0,0,1,302.32,334.11ZM267.73,319.8h17.36v-1.46a14.07,14.07,0,0,0-2.17-8.08,7.36,7.36,0,0,0-6.51-3.18,7,7,0,0,0-6.25,3Q268.12,313,267.73,319.8Z"/><path class="cls-1" d="M359.29,294.22a34.77,34.77,0,0,1,.8,7.36,32.87,32.87,0,0,1-.8,7.22l-15.77-.27V339q0,6.24,5.83,6.23h7.42a26.37,26.37,0,0,1,1.73,8.82,22.08,22.08,0,0,1-.53,5.75,134.41,134.41,0,0,1-18,1.33q-16.71,0-16.7-18.46v-34l-10.34.13a26.57,26.57,0,0,1-.92-7.16,29.63,29.63,0,0,1,.92-7.42l10.34.27V286.8q0-6.75,2.58-9.61t8.68-2.84h8.09l.92.92v19.22Z"/><path class="cls-1" d="M374.27,357.17V263.88l.92-.93H383q6.09,0,8.75,2.78t2.65,9.68v22.13A27.27,27.27,0,0,1,409.73,293q11.61,0,17.49,9.41t5.88,25.31a38.26,38.26,0,0,1-2.38,13.78,32.21,32.21,0,0,1-6.61,10.73,28.49,28.49,0,0,1-10.31,7,35.48,35.48,0,0,1-13.35,2.45Q385.38,361.67,374.27,357.17Zm29.28-47.58a12.05,12.05,0,0,0-9.14,4.38V346.3a25.42,25.42,0,0,0,2.85.4c1,.09,2.1.13,3.24.13q11.53,0,11.53-20Q412,309.72,403.55,309.59Z"/><path class="cls-1" d="M506.38,296.48l-16.3,62.28q-3.84,14.31-10.2,22-7.29,8.75-22.4,8.75a50.3,50.3,0,0,1-16-2.65,21.77,21.77,0,0,1,.79-8,16.65,16.65,0,0,1,3.32-6.82,37.63,37.63,0,0,0,11.92,2q9.81,0,13-10.74l.53-1.85q-11.53,0-13.78-8.35L441.85,296a27.49,27.49,0,0,1,11.39-2.79q5.31,0,7.75,2c1.64,1.33,2.85,3.62,3.65,6.89l6.09,25.44q.93,3.58,3,17.5a1,1,0,0,0,1.06.92l11.53-51.41a31.81,31.81,0,0,1,8.61-.93A34.65,34.65,0,0,1,505.59,295Z"/></svg>