<svg xmlns="http://www.w3.org/2000/svg" viewBox="0 0 368 368"><defs><style>.cls-1{fill:#058bc6;}.cls-2{fill:#fff;}</style></defs><title>Ativo 3</title><g id="Camada_2" data-name="Camada 2"><g id="Camada_2-2" data-name="Camada 2"><path class="cls-1" d="M184.5,368C83.32,368,1,285.68,1,184.5S83.32,1,184.5,1,368,83.32,368,184.5,285.68,368,184.5,368Zm0-283.4a99.9,99.9,0,1,0,99.9,99.9A100,100,0,0,0,184.5,84.6Z" transform="translate(-0.5 -0.5)"/><path class="cls-2" d="M184.5,1.5a183,183,0,0,1,71.23,351.62A183,183,0,0,1,113.27,15.88,181.87,181.87,0,0,1,184.5,1.5m0,283.4A100.4,100.4,0,1,0,84.1,184.5,100.51,100.51,0,0,0,184.5,284.9M184.5.5a184,184,0,1,0,184,184A184,184,0,0,0,184.5.5Zm0,283.4a99.4,99.4,0,1,1,99.4-99.4,99.51,99.51,0,0,1-99.4,99.4Z" transform="translate(-0.5 -0.5)"/><path class="cls-1" d="M184.5,269A84.48,84.48,0,1,1,269,184.5,84.57,84.57,0,0,1,184.5,269Zm-47.19-47.28a7.06,7.06,0,0,0,5,12,7.12,7.12,0,0,0,5-2.07l42.19-42.2a7,7,0,0,0,2.07-5V132.67a7.07,7.07,0,0,0-6.87-6.88h-.2a7,7,0,0,0-7,6.87v48.93Z" transform="translate(-0.5 -0.5)"/><path class="cls-2" d="M184.5,100.53a84,84,0,1,1-84,84,84.08,84.08,0,0,1,84-84m-7.57,80.85-40,40a7.56,7.56,0,0,0,5.35,12.9h0a7.51,7.51,0,0,0,5.33-2.21l42.19-42.2a7.52,7.52,0,0,0,2.22-5.35V132.65a7.57,7.57,0,0,0-7.36-7.36h-.21a7.52,7.52,0,0,0-7.55,7.38v48.71m7.57-81.85a85,85,0,1,0,85,85,85.07,85.07,0,0,0-85-85ZM142.31,233.26h0a6.56,6.56,0,0,1-4.63-11.2l40.27-40.27V132.67a6.55,6.55,0,0,1,6.55-6.38h.18a6.57,6.57,0,0,1,6.39,6.38V184.5a6.53,6.53,0,0,1-1.93,4.64l-42.19,42.2a6.52,6.52,0,0,1-4.62,1.92Z" transform="translate(-0.5 -0.5)"/></g></g></svg>