<svg xmlns="http://www.w3.org/2000/svg" viewBox="0 0 388 388"><defs><style>.cls-1{fill:#f41700;}</style></defs><title>Ativo 5</title><g id="Camada_2" data-name="Camada 2"><g id="Camada_4" data-name="Camada 4"><path class="cls-1" d="M194,388C87,388,0,301,0,194S87,0,194,0,388,87,388,194,301,388,194,388Zm0-370C97,18,18,97,18,194S97,370,194,370s176-78.95,176-176S291.05,18,194,18Z"/><path class="cls-1" d="M201.78,194l54.8-54.8a5.5,5.5,0,0,0-7.78-7.78L194,186.22l-54.8-54.8a5.5,5.5,0,0,0-7.78,7.78l54.8,54.8-54.8,54.8a5.5,5.5,0,0,0,7.78,7.78l54.8-54.8,54.8,54.8a5.5,5.5,0,0,0,7.78-7.78Z"/></g></g></svg>