<svg xmlns="http://www.w3.org/2000/svg" viewBox="0 0 368 368"><defs><style>.cls-1{fill:#058bc6;}.cls-2{fill:#fff;}</style></defs><title>Ativo 2</title><g id="Camada_2" data-name="Camada 2"><g id="Camada_1-2" data-name="Camada 1"><path class="cls-1" d="M129.76,205.33a20.94,20.94,0,0,1-20.89-20.92,20.79,20.79,0,0,1,20.69-20.9h.24a20.91,20.91,0,0,1,20.89,20.93,20.94,20.94,0,0,1-20.91,20.89Z" transform="translate(-0.5 -0.5)"/><path class="cls-2" d="M129.67,164h.13a20.41,20.41,0,1,1-20.43,20.4A20.3,20.3,0,0,1,129.56,164h.11m0-1h-.11a21.41,21.41,0,0,0,.2,42.82h0a21.41,21.41,0,0,0,0-42.82Z" transform="translate(-0.5 -0.5)"/><path class="cls-1" d="M239.17,134A20.91,20.91,0,0,1,239,92.16h.22a20.91,20.91,0,0,1,0,41.81Z" transform="translate(-0.5 -0.5)"/><path class="cls-2" d="M239.07,92.66h.11a20.41,20.41,0,1,1-20.41,20.4A20.3,20.3,0,0,1,239,92.66h.1m0-1H239a21.41,21.41,0,0,0,.21,42.81h0a21.41,21.41,0,0,0,0-42.81Z" transform="translate(-0.5 -0.5)"/><path class="cls-1" d="M239.15,276.67a20.91,20.91,0,0,1-.19-41.81h.25a20.91,20.91,0,0,1,0,41.81Z" transform="translate(-0.5 -0.5)"/><path class="cls-2" d="M239.07,235.36h.14a20.32,20.32,0,1,1-.24,0h.1m0-1H239a21.41,21.41,0,0,0,.19,42.81h0a21.41,21.41,0,0,0,0-42.81h-.14Z" transform="translate(-0.5 -0.5)"/><path class="cls-1" d="M184.5,368C83.32,368,1,285.68,1,184.5S83.32,1,184.5,1,368,83.32,368,184.5,285.68,368,184.5,368Zm19.91-122a36.23,36.23,0,0,0,34.77,46.15,36.26,36.26,0,1,0-27.6-59.67l-49.7-31.32a35.86,35.86,0,0,0-.08-33.41c12.71-8.09,25.76-16.27,38.39-24.18l11.38-7.14a37,37,0,1,0-7.17-13.59l-52.51,33.06a36.18,36.18,0,0,0-44.75,56.87,36.19,36.19,0,0,0,44.82.17Z" transform="translate(-0.5 -0.5)"/><path class="cls-2" d="M184.5,1.5a183,183,0,0,1,71.23,351.62A183,183,0,0,1,113.27,15.88,181.87,181.87,0,0,1,184.5,1.5m19.32,121.08-51.9,32.67a36.69,36.69,0,0,0-45.09,57.88,36.7,36.7,0,0,0,45.16.38l51.84,32.67a36.06,36.06,0,0,0-1.32,9.58,36.8,36.8,0,0,0,36.68,36.85h.08a36.76,36.76,0,0,0,.08-73.52h-.08a36.64,36.64,0,0,0-27.79,12.7l-48.95-30.85a36.34,36.34,0,0,0-.07-33.05c12.6-8,25.53-16.13,38-24l11-6.88a37.4,37.4,0,1,0-7.66-14.46M184.5.5a184,184,0,1,0,184,184A184,184,0,0,0,184.5.5Zm-32.64,156L205,123a35.32,35.32,0,0,1-1.49-10,35.78,35.78,0,0,1,35.68-35.68h0a35.66,35.66,0,1,1-27.51,58.35c-16.84,10.56-33.83,21.15-50.54,31.8a35.47,35.47,0,0,1,.08,33.75l50.46,31.8a35.8,35.8,0,0,1,27.59-13h.09a35.76,35.76,0,0,1-.09,71.52h-.09a35.74,35.74,0,0,1-35.67-35.84,35.22,35.22,0,0,1,1.49-10l-53.07-33.44a35.69,35.69,0,1,1-.07-55.82Z" transform="translate(-0.5 -0.5)"/></g></g></svg>