<svg id="Camada_1" data-name="Camada 1" xmlns="http://www.w3.org/2000/svg" viewBox="0 0 425.2 425.2"><path d="M355.67,213.88A12.14,12.14,0,0,0,343.52,226V396.09H33.06V104H187.88a12.15,12.15,0,0,0,0-24.29h-167A12.13,12.13,0,0,0,8.77,91.84V408.23a12.14,12.14,0,0,0,12.14,12.15H355.67a12.14,12.14,0,0,0,12.15-12.15V226A12.14,12.14,0,0,0,355.67,213.88Z"/><path d="M401.48,18.36C385.2,2.48,364,.3,351.07,13.24c-14.33,14.32-21.17,21.58-22,22.74C278.22,88.57,179.26,186.33,176.83,190.72c-5.44,9.85-29.49,63.13-15.35,77.27,2,2,4.41,4.41,11.85,4.41,9.15,0,26-3.61,59.33-15.87l2.69-1L387,94.13c.1-.12,5.74-6.4,20.82-22.17C421.36,57.74,418.71,35.19,401.48,18.36ZM335.23,64.5v.63c8.7,0,22.43,10,25.31,21.65L228.37,227.49l-25.28-26.33C228.6,174.85,305.44,95.36,335.23,64.5ZM189.63,222.23l16.9,17.6c-9.1,2.95-17.9,5.55-24.26,7A233.57,233.57,0,0,1,189.63,222.23Zm200.58-167c-5,5.25-8.67,9.13-11.78,12.43A57.94,57.94,0,0,0,353.6,45.28c3.18-3.31,7.58-7.81,14.64-14.87a4.89,4.89,0,0,1,3.57-1.35c4,0,9.33,3.38,12.69,6.67C389.36,40.47,395.2,50,390.21,55.18Z"/></svg>