<svg id="Camada_1" data-name="Camada 1" xmlns="http://www.w3.org/2000/svg" viewBox="0 0 425.2 425.2"><defs><style>.cls-1{fill:#058bc6;}</style></defs><path class="cls-1" d="M212.6,2.78C96.9,2.78,2.78,96.9,2.78,212.6S96.9,422.42,212.6,422.42,422.42,328.3,422.42,212.6,328.3,2.78,212.6,2.78ZM392,212.6C392,311.5,311.5,392,212.6,392S33.24,311.5,33.24,212.6,113.7,33.24,212.6,33.24,392,113.7,392,212.6Z"/><path class="cls-1" d="M123.51,315.52a13.84,13.84,0,0,1-9.78-23.63l85-85V103.2a13.85,13.85,0,0,1,27.69,0V212.6a13.83,13.83,0,0,1-4.06,9.79L133.3,311.47A13.79,13.79,0,0,1,123.51,315.52Z"/></svg>