<svg id="Camada_1" data-name="Camada 1" xmlns="http://www.w3.org/2000/svg" viewBox="0 0 425.2 425.2"><defs><style>.cls-1{fill:#fff;}</style></defs><path class="cls-1" d="M338.12,417.11H92.22a12,12,0,0,1-11.93-10.64L45.7,105.38A12,12,0,0,1,57.6,92l310-.57c3.34-1,6.61,1.42,8.91,3.93a12,12,0,0,1,3.06,9.25L350.08,406.26A12,12,0,0,1,338.12,417.11Zm-235.18-24H327.22l27.1-277.6L71.1,116Z"/><path class="cls-1" d="M384.15,53H277l-13.2-37.73a10.68,10.68,0,0,0-10.09-7.16H171.52a10.68,10.68,0,0,0-10.09,7.16L148.22,53H41.05a10.69,10.69,0,1,0,0,21.37h343.1a10.69,10.69,0,0,0,0-21.37Zm-205-23.52h67l7.65,21.87h-82.3Z"/><path class="cls-1" d="M268.83,341a8.15,8.15,0,0,1-1.2-.08,9,9,0,0,1-7.73-10.13l21.3-158.58a9,9,0,0,1,17.86,2.4L277.75,333.17A9,9,0,0,1,268.83,341Z"/><path class="cls-1" d="M156.36,342.58a9,9,0,0,1-8.91-7.82L126.14,176.18A9,9,0,0,1,144,173.79l21.3,158.58a9,9,0,0,1-7.73,10.12A8.21,8.21,0,0,1,156.36,342.58Z"/><path class="cls-1" d="M212.6,341a9,9,0,0,1-9-9V173.39a9,9,0,0,1,18,0V332A9,9,0,0,1,212.6,341Z"/></svg>